<svg width="40" height="40" viewBox="0 0 40 40" fill="none" xmlns="http://www.w3.org/2000/svg">
<path d="M18.7895 5.94737H21.1052C21.3684 5.94737 21.5789 5.73684 21.5789 5.47368C21.5789 5.21052 21.3684 5 21.1052 5H18.7895V5.94737ZM18.7895 8.15789H21.1579C21.4737 8.15789 21.6842 7.94737 21.6842 7.63158C21.6842 7.31579 21.4737 7.10526 21.1579 7.10526H18.7895V8.15789ZM22.5263 6.47368C22.8421 6.78947 23.0526 7.21052 23.0526 7.68421C23.0526 8.63158 22.3158 9.36842 21.3684 9.36842H17.5263V3.8421H21.3158C22.2105 3.8421 22.9474 4.57894 22.9474 5.47368C22.8947 5.8421 22.7368 6.21052 22.5263 6.47368ZM23.421 15.9474H22L21.5789 15H18.4737L18.0526 15.9474H16.6316L19.3684 10.421H20.6316L23.421 15.9474ZM20 11.8421L19.0526 13.8421H20.9474L20 11.8421ZM21.8947 17.1579H23.4737L20.6842 20.7368V22.6842H19.3684V20.7368L16.5789 17.1579H18.1579L20.0526 19.6842L21.8947 17.1579ZM29.2105 17.1579V18.3684H25.5263V19.3158H29.1052V20.5263H25.5263V21.5789H29.2105V22.7895H24.2105V17.1579H29.2105ZM33.2631 20.5789H32.2631V22.6842H30.9474V17.1579H34.3158C35.2631 17.1579 36 17.9474 36 18.8947C36 19.6842 35.4737 20.3158 34.7895 20.5263L36.421 22.6842H34.8421L33.2631 20.5789ZM34.2105 18.3158H32.3158V19.3684H34.2105C34.5263 19.3684 34.7368 19.1053 34.7368 18.8421C34.7368 18.5789 34.4737 18.3158 34.2105 18.3158ZM17.1579 22.6842H15.7368L15.3158 21.7368H12.2105L11.7895 22.6842H10.3684L13.1579 17.1579H14.421L17.1579 22.6842ZM13.7368 18.5789L12.7895 20.5789H14.7368L13.7368 18.5789ZM5.3684 19.2632H7.68419C7.94735 19.2632 8.15788 19.0526 8.15788 18.7895C8.15788 18.5263 7.94735 18.3158 7.68419 18.3158H5.3684V19.2632ZM5.3684 21.4737H7.73682C8.05261 21.4737 8.26314 21.2632 8.26314 20.9474C8.26314 20.6316 8.05261 20.421 7.73682 20.421H5.3684V21.4737ZM9.10524 19.7895C9.42103 20.1053 9.63156 20.5263 9.63156 21C9.63156 21.9474 8.89472 22.6842 7.94735 22.6842H4.05261V17.1579H7.84209C8.73682 17.1579 9.47367 17.8947 9.47367 18.7895C9.47367 19.1579 9.31577 19.5263 9.10524 19.7895ZM22.5263 23.8421V25.0526H18.8421V26H22.421V27.2105H18.8421V28.2632H22.5263V29.4737H17.5263V23.8421H22.5263ZM21.5789 32.421C21.5789 32.1053 21.3684 31.8947 21.0526 31.8947H18.7895V32.9474H21.0526C21.3684 32.9474 21.5789 32.7368 21.5789 32.421ZM17.4737 36.2632V30.7368H21.1579C22.1052 30.7368 22.8421 31.5263 22.8421 32.4737C22.8421 33.2105 22.421 33.7895 21.7895 34.0526L23.4737 36.2632H21.8947L20.3158 34.1579H18.7895V36.2632H17.4737Z" fill="white"/>
<path d="M39.9474 18.7368C39.3158 8.31579 30.6316 0 20 0C9.3684 0 0.684191 8.31579 0.0526123 18.7368C0.0526123 19.1579 0.105244 19.579 0.157875 20C0.578928 23.4737 1.89472 26.6842 3.89472 29.3684C7.5263 34.3158 13.3684 37.5263 20 37.5263C10.7368 37.5263 3.15788 30.3158 2.5263 21.2632C2.47367 20.8421 2.47367 20.4211 2.47367 20C2.47367 19.579 2.47367 19.1579 2.5263 18.7368C3.15788 9.68421 10.7368 2.47368 20 2.47368C26.6316 2.47368 32.4737 5.68421 36.1052 10.6316C38.1053 13.3158 39.421 16.5263 39.8421 20C39.8947 20.4211 39.9474 20.8421 39.9474 21.2105C39.9474 20.7895 40 20.3684 40 19.9474C40 19.579 40 19.1579 39.9474 18.7368Z" fill="#89D329"/>
<path d="M0.0526316 21.2632C0.684211 31.6842 9.36842 40 20 40C30.6316 40 39.3158 31.6842 39.9474 21.2632C39.9474 20.8421 39.8947 20.421 39.8421 20C39.4211 16.5263 38.1053 13.3158 36.1053 10.6316C32.4737 5.68421 26.6316 2.47368 20 2.47368C29.2632 2.47368 36.8421 9.6842 37.4737 18.7368C37.5263 19.1579 37.5263 19.5789 37.5263 20C37.5263 20.421 37.5263 20.8421 37.4737 21.2632C36.8421 30.3684 29.2632 37.5263 20 37.5263C13.3684 37.5263 7.52632 34.3158 3.89474 29.3684C1.89474 26.6842 0.578948 23.4737 0.157895 20C0.105263 19.5789 0.0526316 19.1579 0.0526316 18.7895C0.0526316 19.2105 0 19.6316 0 20.0526C0 20.421 3.92136e-09 20.8421 0.0526316 21.2632Z" fill="#00BCFF"/>
</svg>
